<svg width="60" height="60" viewBox="0 0 60 60" fill="none" xmlns="http://www.w3.org/2000/svg">
<path d="M30.0001 0C21.8525 0 20.8309 0.0345645 17.631 0.180503C14.4379 0.326174 12.2571 0.833388 10.3488 1.57487C8.37603 2.34154 6.70301 3.3674 5.03525 5.03516C3.3674 6.70292 2.34154 8.37612 1.57496 10.3489C0.833299 12.2571 0.326264 14.4379 0.180414 17.631C0.0344752 20.8309 0 21.8525 0 30.0001C0 38.1475 0.0344752 39.1691 0.180414 42.369C0.326264 45.5621 0.833299 47.7429 1.57496 49.6511C2.34163 51.6239 3.36749 53.2969 5.03525 54.9648C6.7031 56.6326 8.37603 57.6585 10.3488 58.4251C12.2571 59.1666 14.4379 59.6737 17.631 59.8195C20.8309 59.9654 21.8525 60 30.0001 60C38.1475 60 39.1691 59.9654 42.369 59.8195C45.5621 59.6738 47.7429 59.1666 49.6511 58.4251C51.6239 57.6585 53.2969 56.6326 54.9648 54.9648C56.6326 53.2969 57.6585 51.6239 58.4251 49.6511C59.1666 47.7429 59.6738 45.5621 59.8195 42.369C59.9654 39.1691 60 38.1475 60 30.0001C60 21.8525 59.9654 20.8309 59.8195 17.631C59.6738 14.4379 59.1666 12.2571 58.4251 10.3489C57.6585 8.37612 56.6326 6.70292 54.9648 5.03516C53.2969 3.3674 51.6239 2.34154 49.6511 1.57487C47.7429 0.833388 45.5621 0.326174 42.369 0.180503C39.1691 0.0345645 38.1475 0 30.0001 0ZM30.0001 5.40537C38.0103 5.40537 38.9592 5.436 42.1226 5.58033C45.0476 5.71368 46.6361 6.2024 47.6931 6.61325C49.0935 7.15753 50.0929 7.80755 51.1426 8.85735C52.1924 9.90714 52.8425 10.9066 53.3867 12.3068C53.7976 13.3639 54.2863 14.9525 54.4197 17.8774C54.564 21.0408 54.5946 21.9897 54.5946 30C54.5946 38.0103 54.564 38.9592 54.4197 42.1226C54.2863 45.0476 53.7976 46.6361 53.3867 47.6931C52.8425 49.0935 52.1924 50.0929 51.1426 51.1426C50.0929 52.1924 49.0934 52.8425 47.6932 53.3867C46.636 53.7976 45.0475 54.2863 42.1226 54.4197C38.9597 54.564 38.0109 54.5946 30 54.5946C21.9891 54.5946 21.0405 54.564 17.8774 54.4196C14.9524 54.2863 13.3639 53.7976 12.3069 53.3867C10.9065 52.8425 9.90714 52.1924 8.85744 51.1426C7.80764 50.0929 7.15753 49.0934 6.61325 47.6932C6.2024 46.636 5.71377 45.0475 5.58033 42.1226C5.436 38.9592 5.40537 38.0103 5.40537 30C5.40537 21.9897 5.436 21.0408 5.58033 17.8774C5.71377 14.9524 6.2024 13.3639 6.61325 12.3069C7.15753 10.9065 7.80764 9.90714 8.85735 8.85744C9.90714 7.80755 10.9066 7.15753 12.3068 6.61325C13.3639 6.2024 14.9525 5.71368 17.8774 5.58033C21.0408 5.436 21.9897 5.40537 30 5.40537" fill="#100F0D"/>
<path d="M30.0001 40C24.4771 40 20 35.5229 20 30.0001C20 24.4771 24.4771 20 30.0001 20C35.5229 20 40 24.4771 40 30.0001C40 35.5229 35.5229 40 30.0001 40ZM30.0001 14.5946C21.4918 14.5946 14.5946 21.4918 14.5946 30.0001C14.5946 38.5082 21.4918 45.4054 30.0001 45.4054C38.5082 45.4054 45.4054 38.5082 45.4054 30.0001C45.4054 21.4918 38.5082 14.5946 30.0001 14.5946ZM49.6141 13.9859C49.6141 15.9742 48.0023 17.5859 46.0141 17.5859C44.0259 17.5859 42.4141 15.9742 42.4141 13.9859C42.4141 11.9977 44.0259 10.3859 46.0141 10.3859C48.0023 10.3859 49.6141 11.9977 49.6141 13.9859Z" fill="#100F0D"/>
</svg>
