<svg width="60" height="60" viewBox="0 0 60 60" fill="none" xmlns="http://www.w3.org/2000/svg">
<path d="M23.3552 23.6316V21.2958C22.4488 21.1888 21.5273 21.122 20.5755 21.122C9.2303 21.1089 0 29.2649 0 39.3034C0 45.4572 3.47458 50.9037 8.7922 54.2009C5.36294 50.9571 3.26308 46.5919 3.26308 41.813C3.26308 31.9213 12.2366 23.8586 23.3552 23.6316Z" fill="#FF165D"/>
<path d="M23.851 50.112C28.9119 50.112 33.0511 46.5479 33.2325 42.1161L33.2476 2.50961H41.4355C41.2692 1.69532 41.1786 0.854341 41.1786 0H29.9995L29.9844 39.6064C29.8032 44.0383 25.6638 47.6024 20.6031 47.6024C19.0319 47.6024 17.5515 47.2553 16.2372 46.6412C17.9291 48.737 20.7088 50.112 23.851 50.112Z" fill="#FF165D"/>
<path d="M56.7408 15.9552V13.7527C53.6138 13.7527 50.7132 12.9384 48.2659 11.5233C50.4412 13.726 53.387 15.3279 56.7408 15.9552Z" fill="#FF165D"/>
<path d="M48.2704 11.5173C45.8834 9.10117 44.4483 5.9508 44.4483 2.50677H41.4573C42.2276 6.27119 44.7657 9.50167 48.2704 11.5173Z" fill="#3EC1D3"/>
<path d="M20.5879 30.9845C15.4062 30.9845 11.1914 34.7089 11.1914 39.2876C11.1914 42.4781 13.2459 45.2545 16.2371 46.6429C15.1192 45.2813 14.4545 43.6127 14.4545 41.7972C14.4545 37.2185 18.6693 33.4941 23.851 33.4941C24.8178 33.4941 25.7544 33.6409 26.6306 33.8812V23.7895C25.7241 23.6826 24.8027 23.6158 23.851 23.6158C23.6848 23.6158 23.5337 23.6292 23.3675 23.6292V31.3716C22.4762 31.1313 21.5547 30.9845 20.5879 30.9845Z" fill="#3EC1D3"/>
<path d="M56.737 15.9483V23.6239C50.9359 23.6239 45.5579 21.9821 41.1767 19.2054V39.2957C41.1767 49.3207 31.9466 57.4904 20.5862 57.4904C16.2052 57.4904 12.1263 56.2622 8.78772 54.1932C12.5493 57.7572 17.9122 60 23.8494 60C35.1945 60 44.44 51.8437 44.44 41.8053V21.715C48.8209 24.4917 54.1989 26.1335 60 26.1335V16.2554C58.8669 16.2554 57.7792 16.1485 56.737 15.9483Z" fill="#3EC1D3"/>
<path d="M41.1819 39.2965V19.2062C45.5631 21.9829 50.9411 23.6247 56.7422 23.6247V15.9491C53.3884 15.3219 50.4425 13.7199 48.2672 11.5173C44.7623 9.50167 42.2395 6.27119 41.4387 2.50677H33.2509L33.2358 42.113C33.0546 46.5449 28.9151 50.1092 23.8545 50.1092C20.7122 50.1092 17.9476 48.7342 16.2255 46.6518C13.2343 45.2501 11.1798 42.487 11.1798 39.2965C11.1798 34.7178 15.3946 30.9934 20.5762 30.9934C21.5431 30.9934 22.4797 31.1402 23.3559 31.3805V23.6381C12.2373 23.8517 3.26379 31.9144 3.26379 41.8061C3.26379 46.585 5.36365 50.9369 8.79289 54.194C12.1315 56.263 16.2104 57.4912 20.5914 57.4912C31.9367 57.4912 41.1819 49.3216 41.1819 39.2965Z" fill="black"/>
</svg>
